<mxfile host="Electron" modified="2024-07-08T02:24:47.266Z" agent="Mozilla/5.0 (Macintosh; Intel Mac OS X 10_15_7) AppleWebKit/537.36 (KHTML, like Gecko) draw.io/24.4.13 Chrome/124.0.6367.207 Electron/30.0.6 Safari/537.36" etag="nF_KHBWLWnP3E1kGl2RT" version="24.4.13" type="device">
  <diagram name="第 1 页" id="BxHQqh4LlN0-8kpAuKnL">
    <mxGraphModel dx="2110" dy="-335" grid="1" gridSize="10" guides="1" tooltips="1" connect="1" arrows="1" fold="1" page="1" pageScale="1" pageWidth="827" pageHeight="1169" math="0" shadow="0">
      <root>
        <mxCell id="0" />
        <mxCell id="1" parent="0" />
        <mxCell id="ekq0N_BmByj6KeGtWUyI-1" value="&lt;font color=&quot;#000000&quot;&gt;请求默认支付方式&lt;/font&gt;&lt;div&gt;&lt;font color=&quot;#000000&quot;&gt;/common-api/v1/payment/settings&lt;br&gt;&lt;/font&gt;&lt;/div&gt;" style="whiteSpace=wrap;html=1;rounded=1;arcSize=50;align=center;verticalAlign=middle;strokeWidth=1;autosize=0;spacing=4;treeFolding=1;treeMoving=1;newEdgeStyle={&quot;edgeStyle&quot;:&quot;entityRelationEdgeStyle&quot;,&quot;startArrow&quot;:&quot;none&quot;,&quot;endArrow&quot;:&quot;none&quot;,&quot;segment&quot;:10,&quot;curved&quot;:1,&quot;sourcePerimeterSpacing&quot;:0,&quot;targetPerimeterSpacing&quot;:0};strokeColor=#2D7600;fontFamily=Helvetica;fontSize=12;fontColor=#ffffff;fillColor=#008a00;resizable=1;shadow=1;" vertex="1" parent="1">
          <mxGeometry x="-735" y="1610" width="120" height="60" as="geometry" />
        </mxCell>
        <mxCell id="ekq0N_BmByj6KeGtWUyI-2" value="" style="edgeStyle=entityRelationEdgeStyle;rounded=0;orthogonalLoop=1;jettySize=auto;html=1;startArrow=none;endArrow=none;segment=10;curved=1;sourcePerimeterSpacing=0;targetPerimeterSpacing=0;exitX=1;exitY=0.5;exitDx=0;exitDy=0;shadow=1;" edge="1" parent="1" source="ekq0N_BmByj6KeGtWUyI-5" target="ekq0N_BmByj6KeGtWUyI-3">
          <mxGeometry relative="1" as="geometry">
            <mxPoint x="372" y="2750" as="sourcePoint" />
          </mxGeometry>
        </mxCell>
        <mxCell id="ekq0N_BmByj6KeGtWUyI-11" style="edgeStyle=orthogonalEdgeStyle;rounded=0;orthogonalLoop=1;jettySize=auto;html=1;exitX=1;exitY=0.5;exitDx=0;exitDy=0;entryX=0;entryY=0.5;entryDx=0;entryDy=0;" edge="1" parent="1" source="ekq0N_BmByj6KeGtWUyI-3" target="ekq0N_BmByj6KeGtWUyI-9">
          <mxGeometry relative="1" as="geometry" />
        </mxCell>
        <mxCell id="ekq0N_BmByj6KeGtWUyI-16" style="edgeStyle=orthogonalEdgeStyle;rounded=0;orthogonalLoop=1;jettySize=auto;html=1;exitX=1;exitY=0.5;exitDx=0;exitDy=0;entryX=0;entryY=0.5;entryDx=0;entryDy=0;" edge="1" parent="1" source="ekq0N_BmByj6KeGtWUyI-3" target="ekq0N_BmByj6KeGtWUyI-14">
          <mxGeometry relative="1" as="geometry" />
        </mxCell>
        <mxCell id="ekq0N_BmByj6KeGtWUyI-18" value="或" style="edgeLabel;html=1;align=center;verticalAlign=middle;resizable=0;points=[];" vertex="1" connectable="0" parent="ekq0N_BmByj6KeGtWUyI-16">
          <mxGeometry x="-0.6296" y="4" relative="1" as="geometry">
            <mxPoint as="offset" />
          </mxGeometry>
        </mxCell>
        <mxCell id="ekq0N_BmByj6KeGtWUyI-3" value="/preference/settings/${customerId}&lt;br&gt;获取⽤⼾所有配置" style="text;html=1;align=center;verticalAlign=middle;whiteSpace=wrap;rounded=0;fontFamily=Helvetica;fontSize=12;fontColor=#000000;autosize=1;shadow=1;" vertex="1" parent="1">
          <mxGeometry x="-300" y="1620" width="210" height="40" as="geometry" />
        </mxCell>
        <mxCell id="ekq0N_BmByj6KeGtWUyI-4" value="&lt;font style=&quot;font-size: 25px;&quot;&gt;1:1&lt;/font&gt;" style="edgeStyle=orthogonalEdgeStyle;rounded=0;orthogonalLoop=1;jettySize=auto;html=1;entryX=0;entryY=0.5;entryDx=0;entryDy=0;exitX=1;exitY=0.5;exitDx=0;exitDy=0;shadow=1;" edge="1" parent="1" source="ekq0N_BmByj6KeGtWUyI-1" target="ekq0N_BmByj6KeGtWUyI-5">
          <mxGeometry x="-0.1538" y="20" relative="1" as="geometry">
            <mxPoint x="182" y="2600" as="sourcePoint" />
            <mxPoint x="252" y="2750" as="targetPoint" />
            <mxPoint as="offset" />
          </mxGeometry>
        </mxCell>
        <mxCell id="ekq0N_BmByj6KeGtWUyI-5" value="CC" style="whiteSpace=wrap;html=1;rounded=1;arcSize=50;align=center;verticalAlign=middle;strokeWidth=1;autosize=0;spacing=4;treeFolding=1;treeMoving=1;newEdgeStyle={&quot;edgeStyle&quot;:&quot;entityRelationEdgeStyle&quot;,&quot;startArrow&quot;:&quot;none&quot;,&quot;endArrow&quot;:&quot;none&quot;,&quot;segment&quot;:10,&quot;curved&quot;:1,&quot;sourcePerimeterSpacing&quot;:0,&quot;targetPerimeterSpacing&quot;:0};strokeColor=#3700CC;fontFamily=Helvetica;fontSize=12;fontColor=#ffffff;fillColor=#6a00ff;movable=1;resizable=1;rotatable=1;deletable=1;editable=1;locked=0;connectable=1;aspect=fixed;imageAspect=0;recursiveResize=0;shadow=1;" vertex="1" parent="1">
          <mxGeometry x="-500" y="1610" width="120" height="60" as="geometry" />
        </mxCell>
        <mxCell id="ekq0N_BmByj6KeGtWUyI-6" value="&lt;font style=&quot;font-size: 48px;&quot;&gt;MOD首页场景&lt;/font&gt;" style="text;strokeColor=none;fillColor=none;align=left;verticalAlign=middle;spacingLeft=4;spacingRight=4;overflow=hidden;points=[[0,0.5],[1,0.5]];portConstraint=eastwest;rotatable=0;whiteSpace=wrap;html=1;" vertex="1" parent="1">
          <mxGeometry x="-767.5" y="1277" width="327.5" height="73" as="geometry" />
        </mxCell>
        <mxCell id="ekq0N_BmByj6KeGtWUyI-7" value="&lt;font style=&quot;font-size: 36px;&quot;&gt;系统视角&lt;/font&gt;" style="text;html=1;align=center;verticalAlign=middle;resizable=0;points=[];autosize=1;strokeColor=none;fillColor=none;" vertex="1" parent="1">
          <mxGeometry x="-760" y="1410" width="170" height="60" as="geometry" />
        </mxCell>
        <mxCell id="ekq0N_BmByj6KeGtWUyI-9" value="redis" style="rounded=1;whiteSpace=wrap;html=1;fillColor=#f8cecc;strokeColor=#b85450;" vertex="1" parent="1">
          <mxGeometry y="1560" width="95" height="30" as="geometry" />
        </mxCell>
        <mxCell id="ekq0N_BmByj6KeGtWUyI-14" value="mysql" style="rounded=1;whiteSpace=wrap;html=1;fillColor=#f8cecc;strokeColor=#b85450;" vertex="1" parent="1">
          <mxGeometry y="1670" width="95" height="30" as="geometry" />
        </mxCell>
        <mxCell id="ekq0N_BmByj6KeGtWUyI-19" value="" style="edgeStyle=entityRelationEdgeStyle;rounded=0;orthogonalLoop=1;jettySize=auto;html=1;startArrow=none;endArrow=none;segment=10;curved=1;sourcePerimeterSpacing=0;targetPerimeterSpacing=0;" edge="1" parent="1" source="ekq0N_BmByj6KeGtWUyI-20" target="ekq0N_BmByj6KeGtWUyI-22">
          <mxGeometry relative="1" as="geometry" />
        </mxCell>
        <mxCell id="ekq0N_BmByj6KeGtWUyI-20" value="&lt;div&gt;购物车数据&lt;/div&gt;&lt;div&gt;/mop/cart/detail/v4&lt;br&gt;&lt;/div&gt;" style="whiteSpace=wrap;html=1;rounded=1;arcSize=50;align=center;verticalAlign=middle;strokeWidth=1;autosize=0;spacing=4;treeFolding=1;treeMoving=1;newEdgeStyle={&quot;edgeStyle&quot;:&quot;entityRelationEdgeStyle&quot;,&quot;startArrow&quot;:&quot;none&quot;,&quot;endArrow&quot;:&quot;none&quot;,&quot;segment&quot;:10,&quot;curved&quot;:1,&quot;sourcePerimeterSpacing&quot;:0,&quot;targetPerimeterSpacing&quot;:0};strokeColor=#2D7600;fontFamily=Helvetica;fontSize=12;fontColor=#ffffff;fillColor=#60a917;" vertex="1" parent="1">
          <mxGeometry x="-735" y="1800" width="120" height="60" as="geometry" />
        </mxCell>
        <mxCell id="ekq0N_BmByj6KeGtWUyI-21" value="" style="edgeStyle=entityRelationEdgeStyle;rounded=0;orthogonalLoop=1;jettySize=auto;html=1;startArrow=none;endArrow=none;segment=10;curved=1;sourcePerimeterSpacing=0;targetPerimeterSpacing=0;" edge="1" parent="1" source="ekq0N_BmByj6KeGtWUyI-22" target="ekq0N_BmByj6KeGtWUyI-26">
          <mxGeometry relative="1" as="geometry" />
        </mxCell>
        <mxCell id="ekq0N_BmByj6KeGtWUyI-22" value="Star Engline" style="whiteSpace=wrap;html=1;rounded=1;arcSize=50;align=center;verticalAlign=middle;strokeWidth=1;autosize=0;spacing=4;treeFolding=1;treeMoving=1;newEdgeStyle={&quot;edgeStyle&quot;:&quot;entityRelationEdgeStyle&quot;,&quot;startArrow&quot;:&quot;none&quot;,&quot;endArrow&quot;:&quot;none&quot;,&quot;segment&quot;:10,&quot;curved&quot;:1,&quot;sourcePerimeterSpacing&quot;:0,&quot;targetPerimeterSpacing&quot;:0};strokeColor=#6D1F00;fontFamily=Helvetica;fontSize=12;fontColor=#ffffff;fillColor=#a0522d;" vertex="1" parent="1">
          <mxGeometry x="-544" y="1800" width="120" height="60" as="geometry" />
        </mxCell>
        <mxCell id="ekq0N_BmByj6KeGtWUyI-23" style="edgeStyle=orthogonalEdgeStyle;rounded=0;orthogonalLoop=1;jettySize=auto;html=1;exitX=1;exitY=0.5;exitDx=0;exitDy=0;entryX=0;entryY=0.5;entryDx=0;entryDy=0;" edge="1" parent="1" source="ekq0N_BmByj6KeGtWUyI-26" target="ekq0N_BmByj6KeGtWUyI-28">
          <mxGeometry relative="1" as="geometry" />
        </mxCell>
        <mxCell id="ekq0N_BmByj6KeGtWUyI-24" style="edgeStyle=orthogonalEdgeStyle;rounded=0;orthogonalLoop=1;jettySize=auto;html=1;exitX=1;exitY=0.5;exitDx=0;exitDy=0;entryX=0;entryY=0.5;entryDx=0;entryDy=0;" edge="1" parent="1" source="ekq0N_BmByj6KeGtWUyI-26" target="ekq0N_BmByj6KeGtWUyI-29">
          <mxGeometry relative="1" as="geometry" />
        </mxCell>
        <mxCell id="ekq0N_BmByj6KeGtWUyI-25" value="从redis中获取，&lt;br&gt;没有才会查询ob" style="edgeLabel;html=1;align=center;verticalAlign=middle;resizable=0;points=[];" vertex="1" connectable="0" parent="ekq0N_BmByj6KeGtWUyI-24">
          <mxGeometry x="-0.44" y="-3" relative="1" as="geometry">
            <mxPoint x="22" y="-3" as="offset" />
          </mxGeometry>
        </mxCell>
        <mxCell id="ekq0N_BmByj6KeGtWUyI-26" value="&lt;div&gt;/star/calculateStar&lt;br&gt;&lt;/div&gt;" style="text;html=1;align=center;verticalAlign=middle;whiteSpace=wrap;rounded=0;fontFamily=Helvetica;fontSize=12;fontColor=default;autosize=1;" vertex="1" parent="1">
          <mxGeometry x="-314" y="1815" width="120" height="30" as="geometry" />
        </mxCell>
        <mxCell id="ekq0N_BmByj6KeGtWUyI-27" value="&lt;span style=&quot;color: rgb(0, 0, 0); font-family: Helvetica; font-size: 13px; font-style: normal; font-variant-ligatures: normal; font-variant-caps: normal; font-weight: 400; letter-spacing: normal; orphans: 2; text-align: center; text-indent: 0px; text-transform: none; widows: 2; word-spacing: 0px; -webkit-text-stroke-width: 0px; white-space: nowrap; background-color: rgb(251, 251, 251); text-decoration-thickness: initial; text-decoration-style: initial; text-decoration-color: initial; display: inline !important; float: none;&quot;&gt;1:1&lt;/span&gt;" style="text;whiteSpace=wrap;html=1;" vertex="1" parent="1">
          <mxGeometry x="-594" y="1786" width="50" height="40" as="geometry" />
        </mxCell>
        <mxCell id="ekq0N_BmByj6KeGtWUyI-28" value="redis" style="rounded=1;whiteSpace=wrap;html=1;fillColor=#f8cecc;strokeColor=#b85450;" vertex="1" parent="1">
          <mxGeometry x="-124" y="1780" width="100" height="20" as="geometry" />
        </mxCell>
        <mxCell id="ekq0N_BmByj6KeGtWUyI-29" value="ob" style="rounded=1;whiteSpace=wrap;html=1;fillColor=#f8cecc;strokeColor=#b85450;" vertex="1" parent="1">
          <mxGeometry x="-124" y="1850" width="100" height="20" as="geometry" />
        </mxCell>
        <mxCell id="ekq0N_BmByj6KeGtWUyI-30" value="&lt;font color=&quot;#000000&quot; style=&quot;font-size: 13px;&quot;&gt;1:8&lt;/font&gt;" style="edgeLabel;html=1;align=center;verticalAlign=middle;resizable=0;points=[];rounded=1;strokeColor=#005700;fontFamily=Helvetica;fontSize=13;fontColor=#ffffff;fillColor=#008a00;labelBackgroundColor=none;" vertex="1" connectable="0" parent="1">
          <mxGeometry x="-234.00384615384598" y="1829.9999999999995" as="geometry">
            <mxPoint x="91" y="-49" as="offset" />
          </mxGeometry>
        </mxCell>
        <mxCell id="ekq0N_BmByj6KeGtWUyI-31" value="&lt;font color=&quot;#000000&quot; style=&quot;font-size: 13px;&quot;&gt;1:8&lt;/font&gt;" style="edgeLabel;html=1;align=center;verticalAlign=middle;resizable=0;points=[];rounded=1;strokeColor=#005700;fontFamily=Helvetica;fontSize=13;fontColor=#ffffff;fillColor=#008a00;labelBackgroundColor=none;" vertex="1" connectable="0" parent="1">
          <mxGeometry x="-234.00384615384598" y="1895.9999999999995" as="geometry">
            <mxPoint x="91" y="-49" as="offset" />
          </mxGeometry>
        </mxCell>
      </root>
    </mxGraphModel>
  </diagram>
</mxfile>
